<svg height="512pt" viewBox="0 0 512 512" width="512pt" xmlns="http://www.w3.org/2000/svg"><path d="m45.832031 395.703125c-2.664062 0-5.265625-1.328125-6.785156-3.742187-25.542969-40.695313-39.046875-87.703126-39.046875-135.960938 0-48.214844 13.496094-95.214844 39.023438-135.902344 2.351562-3.746094 7.289062-4.890625 11.023437-2.523437 3.746094 2.347656 4.875 7.28125 2.519531 11.027343-23.917968 38.132813-36.566406 82.191407-36.566406 127.398438 0 45.238281 12.65625 89.3125 36.601562 127.449219 2.351563 3.742187 1.214844 8.679687-2.511718 11.03125-1.328125.824219-2.800782 1.222656-4.257813 1.222656zm0 0"/><path d="m256 512c-48.230469 0-95.230469-13.496094-135.902344-39.023438-3.746094-2.34375-4.875-7.28125-2.523437-11.023437 2.347656-3.746094 7.289062-4.890625 11.027343-2.519531 38.117188 23.917968 82.175782 36.566406 127.398438 36.566406 45.230469 0 89.289062-12.648438 127.40625-36.566406 3.738281-2.363282 8.683594-1.226563 11.027344 2.519531 2.351562 3.742187 1.214844 8.679687-2.523438 11.023437-40.671875 25.527344-87.664062 39.023438-135.910156 39.023438zm0 0"/><path d="m466.191406 395.671875c-1.457031 0-2.917968-.398437-4.238281-1.222656-3.746094-2.34375-4.875-7.28125-2.519531-11.023438 23.917968-38.121093 36.566406-82.1875 36.566406-127.425781 0-45.214844-12.640625-89.265625-36.550781-127.390625-2.351563-3.746094-1.21875-8.679687 2.519531-11.023437 3.734375-2.378907 8.679688-1.21875 11.023438 2.519531 25.519531 40.679687 39.007812 87.671875 39.007812 135.894531 0 48.257812-13.496094 95.257812-39.023438 135.921875-1.511718 2.421875-4.121093 3.75-6.785156 3.75zm0 0"/><path d="m387.710938 53.832031c-1.453126 0-2.917969-.398437-4.246094-1.222656-38.136719-23.953125-82.21875-36.609375-127.464844-36.609375-45.230469 0-89.289062 12.648438-127.40625 36.566406-3.746094 2.34375-8.691406 1.21875-11.027344-2.519531-2.351562-3.742187-1.214844-8.679687 2.523438-11.023437 40.671875-25.527344 87.664062-39.023438 135.910156-39.023438 48.265625 0 95.28125 13.503906 135.976562 39.054688 3.734376 2.351562 4.863282 7.289062 2.511719 11.035156-1.511719 2.414062-4.113281 3.742187-6.777343 3.742187zm0 0"/><path d="m255.65625 415.65625c-88.222656 0-160-71.777344-160-160s71.777344-160 160-160 160 71.777344 160 160-71.777344 160-160 160zm0-304c-79.398438 0-144 64.601562-144 144s64.601562 144 144 144 144-64.601562 144-144-64.601562-144-144-144zm0 0"/><path d="m264 200c-13.230469 0-24-10.769531-24-24s10.769531-24 24-24c4.425781 0 8 3.574219 8 8s-3.574219 8-8 8c-4.414062 0-8 3.585938-8 8s3.585938 8 8 8c4.425781 0 8 3.574219 8 8s-3.574219 8-8 8zm0 0"/><path d="m304 232c-13.230469 0-24-10.769531-24-24s10.769531-24 24-24c4.425781 0 8 3.574219 8 8s-3.574219 8-8 8c-4.414062 0-8 3.585938-8 8s3.585938 8 8 8c4.425781 0 8 3.574219 8 8s-3.574219 8-8 8zm0 0"/><path d="m240 264c-13.230469 0-24-10.769531-24-24s10.769531-24 24-24c4.425781 0 8 3.574219 8 8s-3.574219 8-8 8c-4.414062 0-8 3.585938-8 8s3.585938 8 8 8c4.425781 0 8 3.574219 8 8s-3.574219 8-8 8zm0 0"/><path d="m328 296c-13.230469 0-24-10.769531-24-24s10.769531-24 24-24c4.425781 0 8 3.574219 8 8s-3.574219 8-8 8c-4.414062 0-8 3.585938-8 8s3.585938 8 8 8c4.425781 0 8 3.574219 8 8s-3.574219 8-8 8zm0 0"/><path d="m373.753906 168h-109.753906c-4.425781 0-8-3.574219-8-8s3.574219-8 8-8h109.753906c4.421875 0 8 3.574219 8 8s-3.585937 8-8 8zm0 0"/><path d="m304 200h-40c-4.425781 0-8-3.574219-8-8s3.574219-8 8-8h40c4.425781 0 8 3.574219 8 8s-3.574219 8-8 8zm0 0"/><path d="m304 232h-64c-4.425781 0-8-3.574219-8-8s3.574219-8 8-8h64c4.425781 0 8 3.574219 8 8s-3.574219 8-8 8zm0 0"/><path d="m328 264h-88c-4.425781 0-8-3.574219-8-8s3.574219-8 8-8h88c4.425781 0 8 3.574219 8 8s-3.574219 8-8 8zm0 0"/><path d="m404.183594 296h-76.183594c-4.425781 0-8-3.574219-8-8s3.574219-8 8-8h76.183594c4.425781 0 8 3.574219 8 8s-3.574219 8-8 8zm0 0"/><path d="m176 328c-4.425781 0-8-3.574219-8-8s3.574219-8 8-8c4.414062 0 8-3.585938 8-8s-3.585938-8-8-8c-4.425781 0-8-3.574219-8-8s3.574219-8 8-8c13.230469 0 24 10.769531 24 24s-10.769531 24-24 24zm0 0"/><path d="m216 360c-4.425781 0-8-3.574219-8-8s3.574219-8 8-8c4.414062 0 8-3.585938 8-8s-3.585938-8-8-8c-4.425781 0-8-3.574219-8-8s3.574219-8 8-8c13.230469 0 24 10.769531 24 24s-10.769531 24-24 24zm0 0"/><path d="m216 328h-40c-4.425781 0-8-3.574219-8-8s3.574219-8 8-8h40c4.425781 0 8 3.574219 8 8s-3.574219 8-8 8zm0 0"/><path d="m216 360h-77.886719c-4.425781 0-8-3.574219-8-8s3.574219-8 8-8h77.886719c4.425781 0 8 3.574219 8 8s-3.574219 8-8 8zm0 0"/><path d="m176 296h-68.886719c-4.425781 0-8-3.574219-8-8s3.574219-8 8-8h68.886719c4.425781 0 8 3.574219 8 8s-3.574219 8-8 8zm0 0"/><path d="m80 144c-35.289062 0-64-28.710938-64-64s28.710938-64 64-64 64 28.710938 64 64-28.710938 64-64 64zm0-112c-26.472656 0-48 21.527344-48 48s21.527344 48 48 48 48-21.527344 48-48-21.527344-48-48-48zm0 0"/><path d="m80 104c-13.230469 0-24-10.769531-24-24s10.769531-24 24-24 24 10.769531 24 24-10.769531 24-24 24zm0-32c-4.414062 0-8 3.585938-8 8s3.585938 8 8 8 8-3.585938 8-8-3.585938-8-8-8zm0 0"/><path d="m111.929688 134c-4.195313 0-7.722657-3.265625-7.976563-7.503906-.785156-12.617188-11.296875-22.496094-23.953125-22.496094s-23.167969 9.878906-23.953125 22.496094c-.261719 4.40625-4.136719 7.769531-8.480469 7.496094-4.40625-.273438-7.765625-4.070313-7.496094-8.480469 1.304688-21.03125 18.832032-37.511719 39.929688-37.511719s38.625 16.480469 39.921875 37.503906c.269531 4.40625-3.089844 8.199219-7.496094 8.480469-.160156.007813-.328125.015625-.496093.015625zm0 0"/><path d="m432 144c-35.289062 0-64-28.710938-64-64s28.710938-64 64-64 64 28.710938 64 64-28.710938 64-64 64zm0-112c-26.472656 0-48 21.527344-48 48s21.527344 48 48 48 48-21.527344 48-48-21.527344-48-48-48zm0 0"/><path d="m432 104c-13.230469 0-24-10.769531-24-24s10.769531-24 24-24 24 10.769531 24 24-10.769531 24-24 24zm0-32c-4.414062 0-8 3.585938-8 8s3.585938 8 8 8 8-3.585938 8-8-3.585938-8-8-8zm0 0"/><path d="m463.910156 134c-4.191406 0-7.71875-3.265625-7.972656-7.503906-.777344-12.617188-11.296875-22.496094-23.953125-22.496094s-23.167969 9.878906-23.953125 22.496094c-.261719 4.40625-4.046875 7.769531-8.480469 7.496094-4.40625-.273438-7.765625-4.070313-7.496093-8.480469 1.304687-21.03125 18.832031-37.511719 39.929687-37.511719 21.09375 0 38.625 16.480469 39.917969 37.503906.273437 4.40625-3.085938 8.199219-7.496094 8.480469-.160156.007813-.328125.015625-.496094.015625zm0 0"/><path d="m80 496c-35.289062 0-64-28.710938-64-64s28.710938-64 64-64 64 28.710938 64 64-28.710938 64-64 64zm0-112c-26.472656 0-48 21.527344-48 48s21.527344 48 48 48 48-21.527344 48-48-21.527344-48-48-48zm0 0"/><path d="m80 456c-13.230469 0-24-10.769531-24-24s10.769531-24 24-24 24 10.769531 24 24-10.769531 24-24 24zm0-32c-4.414062 0-8 3.585938-8 8s3.585938 8 8 8 8-3.585938 8-8-3.585938-8-8-8zm0 0"/><path d="m111.929688 486c-4.195313 0-7.722657-3.265625-7.976563-7.503906-.785156-12.617188-11.296875-22.496094-23.953125-22.496094s-23.167969 9.878906-23.953125 22.496094c-.261719 4.414062-4.136719 7.734375-8.480469 7.496094-4.40625-.273438-7.765625-4.070313-7.496094-8.480469 1.304688-21.03125 18.832032-37.511719 39.929688-37.511719s38.625 16.480469 39.921875 37.503906c.269531 4.40625-3.089844 8.199219-7.496094 8.480469-.160156.007813-.328125.015625-.496093.015625zm0 0"/><path d="m432 496c-35.289062 0-64-28.710938-64-64s28.710938-64 64-64 64 28.710938 64 64-28.710938 64-64 64zm0-112c-26.472656 0-48 21.527344-48 48s21.527344 48 48 48 48-21.527344 48-48-21.527344-48-48-48zm0 0"/><path d="m432 456c-13.230469 0-24-10.769531-24-24s10.769531-24 24-24 24 10.769531 24 24-10.769531 24-24 24zm0-32c-4.414062 0-8 3.585938-8 8s3.585938 8 8 8 8-3.585938 8-8-3.585938-8-8-8zm0 0"/><path d="m463.910156 486c-4.191406 0-7.71875-3.265625-7.972656-7.503906-.777344-12.617188-11.296875-22.496094-23.953125-22.496094s-23.167969 9.878906-23.953125 22.496094c-.261719 4.414062-4.046875 7.734375-8.480469 7.496094-4.40625-.273438-7.765625-4.070313-7.496093-8.480469 1.304687-21.03125 18.832031-37.511719 39.929687-37.511719 21.09375 0 38.625 16.480469 39.917969 37.503906.273437 4.40625-3.085938 8.199219-7.496094 8.480469-.160156.007813-.328125.015625-.496094.015625zm0 0"/></svg>