<svg height="512pt" viewBox="0 0 512 512" width="512pt" xmlns="http://www.w3.org/2000/svg"><path d="M45.832 395.703a8.004 8.004 0 01-6.785-3.742C13.504 351.266 0 304.258 0 256c0-48.215 13.496-95.215 39.023-135.902 2.352-3.746 7.29-4.891 11.024-2.524a7.987 7.987 0 012.52 11.028C28.647 166.734 16 210.793 16 256c0 45.238 12.656 89.313 36.602 127.45 2.351 3.741 1.214 8.679-2.512 11.03a8.055 8.055 0 01-4.258 1.223zM256 512c-48.23 0-95.23-13.496-135.902-39.023a7.987 7.987 0 01-2.524-11.024c2.348-3.746 7.29-4.89 11.028-2.52C166.719 483.353 210.777 496 256 496c45.23 0 89.29-12.648 127.406-36.566 3.739-2.364 8.684-1.227 11.028 2.52 2.351 3.741 1.214 8.679-2.524 11.023C351.238 498.504 304.246 512 256 512zm210.191-116.328a7.97 7.97 0 01-4.238-1.223 7.982 7.982 0 01-2.52-11.023C483.353 345.305 496 301.238 496 256c0-45.215-12.64-89.266-36.55-127.39a7.992 7.992 0 012.519-11.024c3.734-2.379 8.68-1.219 11.023 2.52C498.512 160.785 512 207.776 512 256c0 48.258-13.496 95.258-39.023 135.922a7.984 7.984 0 01-6.786 3.75zM387.71 53.832a8.026 8.026 0 01-4.245-1.223C345.328 28.656 301.246 16 256 16c-45.23 0-89.29 12.648-127.406 36.566-3.746 2.344-8.692 1.22-11.028-2.52-2.351-3.741-1.214-8.679 2.524-11.023C160.762 13.496 207.754 0 256 0c48.266 0 95.281 13.504 135.977 39.055a8.009 8.009 0 012.511 11.035 7.981 7.981 0 01-6.777 3.742zM255.656 415.656c-88.222 0-160-71.777-160-160s71.778-160 160-160 160 71.778 160 160-71.777 160-160 160zm0-304c-79.398 0-144 64.602-144 144s64.602 144 144 144 144-64.601 144-144-64.601-144-144-144zm0 0"/><path d="M264 200c-13.23 0-24-10.77-24-24s10.77-24 24-24c4.426 0 8 3.574 8 8s-3.574 8-8 8c-4.414 0-8 3.586-8 8s3.586 8 8 8c4.426 0 8 3.574 8 8s-3.574 8-8 8zm40 32c-13.23 0-24-10.77-24-24s10.77-24 24-24c4.426 0 8 3.574 8 8s-3.574 8-8 8c-4.414 0-8 3.586-8 8s3.586 8 8 8c4.426 0 8 3.574 8 8s-3.574 8-8 8zm-64 32c-13.23 0-24-10.77-24-24s10.77-24 24-24c4.426 0 8 3.574 8 8s-3.574 8-8 8c-4.414 0-8 3.586-8 8s3.586 8 8 8c4.426 0 8 3.574 8 8s-3.574 8-8 8zm88 32c-13.23 0-24-10.77-24-24s10.77-24 24-24c4.426 0 8 3.574 8 8s-3.574 8-8 8c-4.414 0-8 3.586-8 8s3.586 8 8 8c4.426 0 8 3.574 8 8s-3.574 8-8 8zm0 0"/><path d="M373.754 168H264c-4.426 0-8-3.574-8-8s3.574-8 8-8h109.754c4.422 0 8 3.574 8 8s-3.586 8-8 8zM304 200h-40c-4.426 0-8-3.574-8-8s3.574-8 8-8h40c4.426 0 8 3.574 8 8s-3.574 8-8 8zm0 32h-64c-4.426 0-8-3.574-8-8s3.574-8 8-8h64c4.426 0 8 3.574 8 8s-3.574 8-8 8zm24 32h-88c-4.426 0-8-3.574-8-8s3.574-8 8-8h88c4.426 0 8 3.574 8 8s-3.574 8-8 8zm76.184 32H328c-4.426 0-8-3.574-8-8s3.574-8 8-8h76.184c4.425 0 8 3.574 8 8s-3.575 8-8 8zM176 328c-4.426 0-8-3.574-8-8s3.574-8 8-8c4.414 0 8-3.586 8-8s-3.586-8-8-8c-4.426 0-8-3.574-8-8s3.574-8 8-8c13.23 0 24 10.77 24 24s-10.77 24-24 24zm40 32c-4.426 0-8-3.574-8-8s3.574-8 8-8c4.414 0 8-3.586 8-8s-3.586-8-8-8c-4.426 0-8-3.574-8-8s3.574-8 8-8c13.23 0 24 10.77 24 24s-10.77 24-24 24zm0 0"/><path d="M216 328h-40c-4.426 0-8-3.574-8-8s3.574-8 8-8h40c4.426 0 8 3.574 8 8s-3.574 8-8 8zm0 32h-77.887c-4.425 0-8-3.574-8-8s3.575-8 8-8H216c4.426 0 8 3.574 8 8s-3.574 8-8 8zm-40-64h-68.887c-4.425 0-8-3.574-8-8s3.575-8 8-8H176c4.426 0 8 3.574 8 8s-3.574 8-8 8zM80 144c-35.29 0-64-28.71-64-64s28.71-64 64-64 64 28.71 64 64-28.71 64-64 64zm0-112c-26.473 0-48 21.527-48 48s21.527 48 48 48 48-21.527 48-48-21.527-48-48-48zm0 0"/><path d="M80 104c-13.23 0-24-10.77-24-24s10.77-24 24-24 24 10.77 24 24-10.77 24-24 24zm0-32c-4.414 0-8 3.586-8 8s3.586 8 8 8 8-3.586 8-8-3.586-8-8-8zm0 0"/><path d="M111.93 134c-4.196 0-7.723-3.266-7.977-7.504C103.168 113.88 92.656 104 80 104s-23.168 9.879-23.953 22.496c-.262 4.406-4.137 7.77-8.48 7.496a8.01 8.01 0 01-7.497-8.48C41.375 104.48 58.902 88 80 88s38.625 16.48 39.922 37.504c.27 4.406-3.09 8.2-7.496 8.48-.16.008-.328.016-.496.016zM432 144c-35.29 0-64-28.71-64-64s28.71-64 64-64 64 28.71 64 64-28.71 64-64 64zm0-112c-26.473 0-48 21.527-48 48s21.527 48 48 48 48-21.527 48-48-21.527-48-48-48zm0 0"/><path d="M432 104c-13.23 0-24-10.77-24-24s10.77-24 24-24 24 10.77 24 24-10.77 24-24 24zm0-32c-4.414 0-8 3.586-8 8s3.586 8 8 8 8-3.586 8-8-3.586-8-8-8zm0 0"/><path d="M463.91 134c-4.191 0-7.719-3.266-7.973-7.504C455.16 113.88 444.642 104 431.985 104s-23.168 9.879-23.953 22.496c-.261 4.406-4.047 7.77-8.48 7.496a8.01 8.01 0 01-7.496-8.48C393.359 104.48 410.887 88 431.985 88c21.093 0 38.624 16.48 39.917 37.504.274 4.406-3.086 8.2-7.496 8.48-.16.008-.328.016-.496.016zM80 496c-35.29 0-64-28.71-64-64s28.71-64 64-64 64 28.71 64 64-28.71 64-64 64zm0-112c-26.473 0-48 21.527-48 48s21.527 48 48 48 48-21.527 48-48-21.527-48-48-48zm0 0"/><path d="M80 456c-13.23 0-24-10.77-24-24s10.77-24 24-24 24 10.77 24 24-10.77 24-24 24zm0-32c-4.414 0-8 3.586-8 8s3.586 8 8 8 8-3.586 8-8-3.586-8-8-8zm0 0"/><path d="M111.93 486c-4.196 0-7.723-3.266-7.977-7.504C103.168 465.88 92.656 456 80 456s-23.168 9.879-23.953 22.496c-.262 4.414-4.137 7.734-8.48 7.496a8.01 8.01 0 01-7.497-8.48C41.375 456.48 58.902 440 80 440s38.625 16.48 39.922 37.504c.27 4.406-3.09 8.2-7.496 8.48-.16.008-.328.016-.496.016zM432 496c-35.29 0-64-28.71-64-64s28.71-64 64-64 64 28.71 64 64-28.71 64-64 64zm0-112c-26.473 0-48 21.527-48 48s21.527 48 48 48 48-21.527 48-48-21.527-48-48-48zm0 0"/><path d="M432 456c-13.23 0-24-10.77-24-24s10.77-24 24-24 24 10.77 24 24-10.77 24-24 24zm0-32c-4.414 0-8 3.586-8 8s3.586 8 8 8 8-3.586 8-8-3.586-8-8-8zm0 0"/><path d="M463.91 486c-4.191 0-7.719-3.266-7.973-7.504C455.16 465.88 444.642 456 431.985 456s-23.168 9.879-23.953 22.496c-.261 4.414-4.047 7.734-8.48 7.496a8.01 8.01 0 01-7.496-8.48C393.359 456.48 410.887 440 431.985 440c21.093 0 38.624 16.48 39.917 37.504.274 4.406-3.086 8.2-7.496 8.48-.16.008-.328.016-.496.016zm0 0"/></svg>